# xmcd
#
# Track frame offsets: 
#        182
#        20587
#        44837
#        69712
#        87525
#        113145
#        135137
#        156267
#        182187
#        210312
#
# Disc length: 3098 seconds
#
# Revision: 2
# Processed by: cddbd v1.5PL3 Copyright (c) Steve Scherf et al.
# Submitted via: ExactAudioCopy v0.95a5
#
DISCID=8b0c180a
DTITLE=Sonando Rico - Bailables Cubanos
DYEAR=1993
DGENRE=Dance
TTITLE0=yo vengo pedaleando
TTITLE1=tu no colabores si no es contigo
TTITLE2=palenque
TTITLE3=me qude con ganas
TTITLE4=se subio el voltaje
TTITLE5=aprovechando la cobertura
TTITLE6=summer time
TTITLE7=candito n seas travieso
TTITLE8=vuela paloma
TTITLE9=la captura
EXTD=
EXTT0=
EXTT1=
EXTT2=
EXTT3=
EXTT4=
EXTT5=
EXTT6=
EXTT7=
EXTT8=
EXTT9=
PLAYORDER=
